HIERARCHY
ROOT Hips
{
	OFFSET 0.000000 89.005402 0.000000
	CHANNELS 6 Xposition Yposition Zposition Xrotation Yrotation Zrotation
	JOINT Spine
	{
		OFFSET 0.116900 10.681000 0.373400
		CHANNELS 3 Xrotation Yrotation Zrotation
		JOINT Spine1
		{
			OFFSET 0.000000 13.840401 0.053500
			CHANNELS 3 Xrotation Yrotation Zrotation
			JOINT Spine2
			{
				OFFSET 0.000000 14.712700 -0.366200
				CHANNELS 3 Xrotation Yrotation Zrotation
				JOINT Neck
				{
					OFFSET 0.000000 35.415497 -3.314200
					CHANNELS 3 Xrotation Yrotation Zrotation
					JOINT Head
					{
						OFFSET 0.000000 16.899200 1.218300
						CHANNELS 3 Xrotation Yrotation Zrotation
						JOINT HeadTop_End
						{
							OFFSET 0.000000 22.206207 2.192500
							CHANNELS 3 Xrotation Yrotation Zrotation
							End Site
							{
								OFFSET 0.000000 22.314178 0.000000
							}
						}
					}
				}
				JOINT LeftShoulder
				{
					OFFSET 12.896400 26.716293 -4.548400
					CHANNELS 3 Xrotation Yrotation Zrotation
					JOINT LeftArm
					{
						OFFSET 19.027000 -4.857010 -1.718400
						CHANNELS 3 Xrotation Yrotation Zrotation
						JOINT LeftForeArm
						{
							OFFSET 24.179897 0.000000 0.000000
							CHANNELS 3 Xrotation Yrotation Zrotation
							JOINT LeftHand
							{
								OFFSET 27.156403 0.000000 0.000000
								CHANNELS 3 Xrotation Yrotation Zrotation
								JOINT LeftHandIndex1
								{
									OFFSET 16.441200 0.000000 0.000000
									CHANNELS 3 Xrotation Yrotation Zrotation
									JOINT LeftHandIndex2
									{
										OFFSET 4.821899 0.000000 0.000000
										CHANNELS 3 Xrotation Yrotation Zrotation
										JOINT LeftHandIndex3
										{
											OFFSET 6.386497 0.000000 0.000000
											CHANNELS 3 Xrotation Yrotation Zrotation
											JOINT LeftHandIndex4
											{
												OFFSET 5.188988 0.000000 0.000000
												CHANNELS 3 Xrotation Yrotation Zrotation
												End Site
												{
													OFFSET -0.178703 5.185913 0.000177
												}
											}
										}
									}
								}
								JOINT LeftHandThumb1
								{
									OFFSET 6.534897 -5.032593 5.900300
									CHANNELS 3 Xrotation Yrotation Zrotation
									JOINT LeftHandThumb2
									{
										OFFSET 3.818176 -2.204422 2.204423
										CHANNELS 3 Xrotation Yrotation Zrotation
										JOINT LeftHandThumb3
										{
											OFFSET 3.252098 -1.877594 1.877601
											CHANNELS 3 Xrotation Yrotation Zrotation
											JOINT LeftHandThumb4
											{
												OFFSET 5.251778 -3.032120 3.032117
												CHANNELS 3 Xrotation Yrotation Zrotation
												End Site
												{
													OFFSET 0.000023 6.780014 0.000000
												}
											}
										}
									}
								}
							}
						}
					}
				}
				JOINT RightShoulder
				{
					OFFSET -12.896300 26.716293 -4.548400
					CHANNELS 3 Xrotation Yrotation Zrotation
					JOINT RightArm
					{
						OFFSET -19.027000 -4.857010 -1.718400
						CHANNELS 3 Xrotation Yrotation Zrotation
						JOINT RightForeArm
						{
							OFFSET -24.179897 0.000000 0.000000
							CHANNELS 3 Xrotation Yrotation Zrotation
							JOINT RightHand
							{
								OFFSET -27.156403 0.000000 0.000000
								CHANNELS 3 Xrotation Yrotation Zrotation
								JOINT RightHandThumb1
								{
									OFFSET -6.591202 -4.852203 5.988100
									CHANNELS 3 Xrotation Yrotation Zrotation
									JOINT RightHandThumb2
									{
										OFFSET -3.818176 -2.204422 2.204423
										CHANNELS 3 Xrotation Yrotation Zrotation
										JOINT RightHandThumb3
										{
											OFFSET -3.252098 -1.877594 1.877601
											CHANNELS 3 Xrotation Yrotation Zrotation
											JOINT RightHandThumb4
											{
												OFFSET -5.251778 -3.032120 3.032117
												CHANNELS 3 Xrotation Yrotation Zrotation
												End Site
												{
													OFFSET -0.000023 6.780014 0.000000
												}
											}
										}
									}
								}
								JOINT RightHandIndex1
								{
									OFFSET -16.029404 0.000000 0.000000
									CHANNELS 3 Xrotation Yrotation Zrotation
									JOINT RightHandIndex2
									{
										OFFSET -5.213303 0.000000 0.000000
										CHANNELS 3 Xrotation Yrotation Zrotation
										JOINT RightHandIndex3
										{
											OFFSET -6.386528 0.000000 0.000000
											CHANNELS 3 Xrotation Yrotation Zrotation
											JOINT RightHandIndex4
											{
												OFFSET -5.189026 0.000000 0.000000
												CHANNELS 3 Xrotation Yrotation Zrotation
												End Site
												{
													OFFSET 0.236702 5.183624 0.001972
												}
											}
										}
									}
								}
							}
						}
					}
				}
			}
		}
	}
	JOINT LeftUpLeg
	{
		OFFSET 14.073000 -7.904099 -1.463000
		CHANNELS 3 Xrotation Yrotation Zrotation
		JOINT LeftLeg
		{
			OFFSET -0.109806 -34.073280 4.093200
			CHANNELS 3 Xrotation Yrotation Zrotation
			JOINT LeftFoot
			{
				OFFSET 0.109806 -29.899420 -6.319000
				CHANNELS 3 Xrotation Yrotation Zrotation
				JOINT LeftToeBase
				{
					OFFSET 1.551100 -14.988700 20.535801
					CHANNELS 3 Xrotation Yrotation Zrotation
					JOINT LeftToe_End
					{
						OFFSET 0.221200 0.570800 13.248301
						CHANNELS 3 Xrotation Yrotation Zrotation
						End Site
						{
							OFFSET 0.000000 13.262435 0.000000
						}
					}
				}
			}
		}
	}
	JOINT RightUpLeg
	{
		OFFSET -13.839300 -7.904099 -1.463000
		CHANNELS 3 Xrotation Yrotation Zrotation
		JOINT RightLeg
		{
			OFFSET 0.109694 -34.073219 4.093300
			CHANNELS 3 Xrotation Yrotation Zrotation
			JOINT RightFoot
			{
				OFFSET -0.109694 -29.899384 -6.319200
				CHANNELS 3 Xrotation Yrotation Zrotation
				JOINT RightToeBase
				{
					OFFSET -1.551100 -14.988700 20.535801
					CHANNELS 3 Xrotation Yrotation Zrotation
					JOINT RightToe_End
					{
						OFFSET -0.221200 0.570900 13.248299
						CHANNELS 3 Xrotation Yrotation Zrotation
						End Site
						{
							OFFSET 0.000000 13.262440 0.000000
						}
					}
				}
			}
		}
	}
}
MOTION
Frames: 9
Frame Time: 0.033333
-0.378177 144.283981 4.847321 15.786539 -2.421872 -0.272046 12.603011 -0.184361 0.485874 3.430405 0.055048 0.331608 3.430461 0.053535 0.331587 1.983638 -0.704227 1.723876 -6.304162 -1.956444 -4.417795 0.000000 -0.000000 -0.000000 0.612677 -10.528969 -9.262587 -16.857067 14.415987 -30.693945 0.000004 -40.660430 0.000003 16.422319 9.914368 8.892744 -1.733268 -2.965524 -17.643883 0.673209 2.728549 -27.714410 0.127228 1.215598 -11.950430 -0.000002 0.000001 -0.000000 -7.220047 -16.942339 15.004578 8.794625 6.511418 5.542586 2.304281 -2.568590 17.187686 -0.000000 -0.000002 0.000000 0.152236 8.159482 20.154488 -24.605878 -14.452907 26.200334 0.000002 28.637738 -0.000001 7.448240 2.001537 -22.383189 -29.747349 -9.206945 6.858832 15.739000 -8.312262 6.828513 -15.022791 -11.158765 -16.303424 -0.000001 -0.000002 0.000001 -0.797891 -0.539208 19.767264 0.062417 -0.760733 9.380850 0.132041 -1.102266 13.661715 0.000000 -0.000001 -0.000002 -43.531237 2.638304 -1.731109 25.613643 -2.256478 1.275375 26.695796 0.971630 5.862885 13.234090 -0.000002 0.000000 -0.000001 0.000001 -0.000000 -43.503695 -2.280059 2.192390 18.870206 7.013171 -0.532384 48.150539 0.069814 0.124174 3.687874 -0.000001 0.000001 0.000000 -0.000000 -0.000000 
-0.512874 144.205933 3.805775 17.538538 -1.656266 -0.495862 13.549458 -0.858739 0.756595 3.510894 -0.134165 0.359205 3.510243 -0.133542 0.366038 1.860639 -0.634572 1.796319 -8.310723 -1.396217 -4.303026 -0.000001 -0.000000 0.000000 0.649702 -11.869784 -9.144781 -15.958266 7.126962 -29.756624 -0.000008 -39.995006 0.000003 20.108710 8.260012 8.611321 -1.733269 -2.965524 -17.643886 0.673200 2.728550 -27.714399 0.127225 1.215597 -11.950433 0.000003 -0.000000 -0.000000 -7.220046 -16.942342 15.004578 8.794627 6.511408 5.542583 2.304282 -2.568588 17.187688 0.000002 -0.000001 -0.000000 0.081063 9.283620 20.302363 -24.540936 -6.508099 27.908390 0.000000 28.850948 0.000001 10.801288 2.078399 -20.223616 -29.747349 -9.206947 6.858830 15.739000 -8.312263 6.828512 -15.022788 -11.158768 -16.303421 0.000001 -0.000001 -0.000002 -0.797891 -0.539212 19.767257 0.062415 -0.760736 9.380852 0.132043 -1.102267 13.661716 -0.000000 0.000000 -0.000001 -45.457897 2.460523 -2.212456 25.483226 -2.054335 1.686454 22.895759 0.945163 7.341623 11.973103 -0.000000 -0.000001 -0.000003 -0.000000 -0.000000 -46.162776 -1.604289 2.393633 20.153267 4.685307 -0.437654 43.952725 -0.672517 -1.861400 3.498453 -0.000002 -0.000001 -0.000003 0.000000 0.000000 
-0.620888 144.313263 3.309191 17.099722 -1.422237 -1.163436 14.774176 -1.565913 1.134404 3.629312 -0.333036 0.356903 3.628019 -0.327046 0.369725 1.931737 -0.536136 1.879669 -9.013927 -0.485414 -3.831203 -0.000006 0.000000 -0.000000 0.715846 -13.338706 -8.873292 -11.472813 0.809620 -29.071887 -0.000006 -35.442828 -0.000006 23.058988 7.350710 6.679774 -1.733270 -2.965523 -17.643888 0.673204 2.728548 -27.714404 0.127229 1.215597 -11.950429 -0.000000 0.000001 -0.000000 -7.220049 -16.942335 15.004572 8.794626 6.511413 5.542587 2.304280 -2.568587 17.187688 -0.000000 -0.000003 0.000000 -0.029470 10.697611 20.681485 -19.083552 0.738903 29.126618 -0.000000 26.758610 0.000009 13.980561 1.548953 -16.444258 -29.747352 -9.206944 6.858829 15.739001 -8.312263 6.828510 -15.022789 -11.158765 -16.303421 0.000000 0.000001 -0.000002 -0.797891 -0.539209 19.767256 0.062419 -0.760733 9.380856 0.132041 -1.102266 13.661712 -0.000001 -0.000000 0.000001 -44.853678 2.423660 -2.123589 27.140713 -2.177689 2.289975 15.844577 0.650899 8.769865 10.846702 0.000001 0.000003 0.000001 -0.000000 -0.000000 -46.489816 -1.057619 2.742531 23.047891 2.636614 -0.154846 37.271048 -0.891510 -2.447911 3.220077 -0.000001 -0.000000 -0.000002 -0.000000 0.000000 
-0.664716 144.385696 3.316673 15.914114 -1.576323 -1.930541 15.885654 -2.147824 1.439524 3.810827 -0.501980 0.320613 3.809060 -0.489239 0.338167 2.075893 -0.433216 1.947163 -9.094974 0.475437 -3.226404 0.000000 0.000000 -0.000000 0.750612 -14.486669 -8.912685 -6.646073 -3.974659 -29.400997 -0.000009 -30.028117 0.000000 24.836200 7.306661 3.639056 -1.733270 -2.965524 -17.643886 0.673203 2.728551 -27.714406 0.127230 1.215598 -11.950430 0.000000 0.000001 -0.000000 -7.220050 -16.942335 15.004573 8.794623 6.511414 5.542587 2.304280 -2.568586 17.187693 -0.000001 0.000001 -0.000001 -0.161837 12.037956 21.246437 -12.987541 6.007069 30.320241 -0.000001 24.547217 0.000020 16.327706 0.686085 -12.822766 -29.747352 -9.206944 6.858831 15.739001 -8.312261 6.828512 -15.022789 -11.158768 -16.303422 -0.000000 -0.000002 -0.000003 -0.797890 -0.539208 19.767261 0.062418 -0.760733 9.380854 0.132035 -1.102266 13.661712 -0.000000 0.000001 -0.000000 -44.111001 2.513827 -1.477711 27.923266 -2.729221 2.675579 16.209659 0.657148 8.578780 10.593932 -0.000000 -0.000000 0.000002 0.000000 -0.000000 -45.832369 -0.824292 3.356248 25.845180 1.642741 0.120095 31.871780 -0.913961 -2.467044 3.090677 -0.000000 -0.000001 -0.000004 -0.000000 0.000000 
-0.661968 144.384888 3.547853 15.105896 -1.645851 -2.392567 16.674882 -2.510314 1.595905 4.044861 -0.601041 0.286752 4.042824 -0.582759 0.307210 2.179054 -0.360295 1.983186 -9.037403 1.166787 -2.809404 -0.000000 0.000000 0.000000 0.698561 -15.093337 -9.542437 -3.301077 -6.816040 -31.117956 -0.000002 -26.218318 0.000014 26.133098 7.941360 0.822213 -1.733267 -2.965523 -17.643888 0.673207 2.728547 -27.714410 0.127227 1.215597 -11.950429 0.000000 0.000001 -0.000000 -7.220046 -16.942337 15.004580 8.794626 6.511416 5.542582 2.304279 -2.568591 17.187693 -0.000000 -0.000000 -0.000001 -0.269568 12.816216 21.872793 -9.187373 8.482995 32.244534 0.000003 23.623575 0.000004 17.380900 -0.454906 -10.294838 -29.747349 -9.206947 6.858826 15.739000 -8.312259 6.828513 -15.022791 -11.158765 -16.303422 0.000001 -0.000002 -0.000001 -0.797890 -0.539210 19.767259 0.062423 -0.760733 9.380854 0.132047 -1.102265 13.661713 0.000001 -0.000000 0.000000 -43.784982 2.748691 -0.894132 28.618095 -3.285594 2.681912 17.643236 0.715374 8.316241 11.200703 0.000001 0.000005 0.000001 -0.000000 -0.000001 -45.179314 -0.889531 3.743485 26.896028 1.638560 0.291991 30.775726 -0.905742 -2.282895 3.161406 -0.000000 -0.000001 -0.000003 -0.000000 0.000000 
-0.635807 144.398712 3.757408 14.979809 -1.454133 -2.543239 17.181117 -2.484455 1.739537 4.266881 -0.598403 0.299530 4.264821 -0.578231 0.319873 2.192709 -0.341987 1.987912 -8.976197 1.415122 -2.778861 -0.000001 0.000000 -0.000000 0.577730 -15.273041 -10.636823 -0.809556 -7.459960 -33.106156 -0.000005 -24.689624 -0.000006 27.752172 8.667233 -0.666155 -1.733270 -2.965524 -17.643886 0.673204 2.728551 -27.714404 0.127225 1.215598 -11.950433 -0.000000 0.000001 -0.000003 -7.220050 -16.942337 15.004577 8.794626 6.511415 5.542589 2.304281 -2.568590 17.187693 0.000002 0.000001 0.000005 -0.297500 12.806124 22.286875 -7.293043 8.385918 34.233714 -0.000003 23.711070 0.000012 17.694643 -1.690150 -8.549890 -29.747349 -9.206947 6.858829 15.739000 -8.312263 6.828512 -15.022788 -11.158769 -16.303421 0.000003 0.000001 0.000000 -0.797890 -0.539209 19.767259 0.062417 -0.760736 9.380854 0.132041 -1.102265 13.661716 0.000003 0.000001 0.000000 -43.700985 2.871480 -0.831297 28.462302 -3.664522 2.631451 19.184833 0.813051 8.253505 11.886369 -0.000000 -0.000002 -0.000001 0.000000 -0.000001 -44.710664 -1.022428 3.541405 26.665366 1.369255 0.388660 31.384494 -0.826402 -1.668794 3.300103 0.000000 -0.000000 -0.000001 0.000000 -0.000000 
-0.594388 144.417999 3.874153 15.363816 -1.237862 -2.495978 17.447339 -2.073866 1.849177 4.402953 -0.491912 0.349143 4.401202 -0.474289 0.365363 2.147336 -0.374419 1.973522 -8.903307 1.270263 -3.050557 0.000000 0.000000 -0.000000 0.446501 -15.271116 -11.811234 1.693149 -6.174590 -33.980823 0.000011 -24.305349 -0.000012 29.707764 9.291872 -1.234726 -1.733268 -2.965522 -17.643886 0.673201 2.728551 -27.714398 0.127230 1.215598 -11.950433 -0.000004 0.000001 -0.000003 -7.220050 -16.942339 15.004575 8.794624 6.511414 5.542584 2.304279 -2.568587 17.187690 -0.000000 -0.000000 0.000002 -0.247937 12.292241 22.268660 -5.851204 6.955928 35.177670 -0.000012 23.560164 -0.000000 18.178554 -2.826370 -6.656984 -29.747352 -9.206947 6.858825 15.739001 -8.312262 6.828513 -15.022791 -11.158769 -16.303419 -0.000001 -0.000000 0.000003 -0.797893 -0.539211 19.767261 0.062418 -0.760733 9.380854 0.132036 -1.102263 13.661715 -0.000000 -0.000002 0.000001 -43.901953 2.749942 -1.207736 28.036963 -3.668393 2.779878 19.932437 0.874841 8.276524 12.046161 -0.000000 0.000000 -0.000002 0.000000 -0.000000 -45.155641 -1.056440 3.242977 27.277274 1.565718 0.372736 30.481280 -0.831340 -1.237596 3.320521 -0.000000 -0.000001 -0.000001 0.000000 -0.000000 
-0.544106 144.418381 3.891623 15.842632 -1.393418 -2.308812 17.500179 -1.440794 1.734903 4.446931 -0.322296 0.371606 4.445699 -0.310418 0.380367 2.115613 -0.427834 1.960442 -8.780485 0.959883 -3.351081 -0.000003 0.000000 -0.000000 0.351422 -15.217117 -12.671997 3.532386 -3.588598 -33.573026 -0.000003 -23.057624 -0.000015 31.445925 10.321771 -2.487806 -1.733268 -2.965522 -17.643886 0.673206 2.728553 -27.714408 0.127228 1.215595 -11.950426 0.000002 -0.000002 0.000001 -7.220054 -16.942335 15.004575 8.794624 6.511411 5.542585 2.304281 -2.568590 17.187691 -0.000000 0.000002 0.000000 -0.187941 11.846597 21.909287 -4.431458 5.572542 34.720631 0.000005 22.311730 -0.000006 18.907801 -3.817768 -4.040178 -29.747349 -9.206946 6.858826 15.739001 -8.312259 6.828512 -15.022788 -11.158769 -16.303419 -0.000000 0.000003 -0.000000 -0.797892 -0.539213 19.767259 0.062417 -0.760733 9.380852 0.132038 -1.102268 13.661713 -0.000001 0.000001 0.000000 -44.192769 2.570550 -1.414888 28.398345 -3.181802 2.861683 18.283595 0.765136 8.255697 11.786993 0.000000 -0.000001 0.000001 -0.000000 -0.000000 -46.098050 -0.882243 3.241257 29.277886 1.726891 0.154238 26.571657 -0.906812 -1.161721 3.192519 0.000000 -0.000000 -0.000000 0.000000 -0.000000 
-0.508351 144.199097 3.950686 15.826974 -2.010666 -1.946968 17.480244 -0.849995 1.271289 4.461704 -0.156199 0.321888 4.460959 -0.151060 0.322487 2.147706 -0.467573 1.963564 -8.514455 0.766798 -3.506684 -0.000002 0.000000 -0.000000 0.316139 -15.088742 -12.996851 3.281753 -0.422648 -32.494970 -0.000005 -19.698665 -0.000013 32.622080 12.045967 -5.057024 -1.733268 -2.965523 -17.643886 0.673205 2.728547 -27.714403 0.127230 1.215595 -11.950429 0.000002 -0.000001 0.000001 -7.220051 -16.942337 15.004578 8.794626 6.511409 5.542583 2.304280 -2.568594 17.187690 -0.000000 -0.000002 -0.000001 -0.169432 11.861086 21.534383 -3.460436 4.925251 33.060414 0.000007 20.227516 -0.000006 19.294152 -4.441759 -1.215174 -29.747349 -9.206944 6.858832 15.739001 -8.312262 6.828511 -15.022789 -11.158772 -16.303419 0.000001 -0.000001 -0.000002 -0.797892 -0.539208 19.767262 0.062417 -0.760736 9.380858 0.132037 -1.102262 13.661713 0.000001 -0.000003 0.000001 -44.476010 2.633623 -1.259884 29.632909 -2.513855 2.562306 16.944740 0.698833 8.401592 11.640083 0.000001 0.000002 -0.000001 -0.000000 -0.000001 -46.849302 -0.641941 3.546362 31.456009 2.040796 -0.245096 23.674861 -0.946941 -1.330173 3.102210 -0.000000 -0.000000 0.000001 0.000000 -0.000000 
